<svg width="64" height="64" viewBox="0 0 64 64" fill="none" xmlns="http://www.w3.org/2000/svg">
<path d="M13.3335 17.7786V46.2231C13.3335 48.5686 13.3335 49.7405 13.8271 50.4344C14.2579 51.0401 14.9219 51.4377 15.659 51.5328C16.5036 51.6417 17.5374 51.0916 19.6069 49.9878L46.2736 35.7656C48.5655 34.5432 49.7115 33.931 50.0871 33.1172C50.4142 32.4082 50.4142 31.5898 50.0871 30.8809C49.712 30.0682 48.5688 29.4584 46.2833 28.2395L46.2736 28.2352L19.6069 14.013C17.5388 12.91 16.5033 12.3577 15.659 12.4666C14.9219 12.5617 14.2579 12.9594 13.8271 13.5651C13.3335 14.2591 13.3335 15.4331 13.3335 17.7786Z" fill="white" stroke="white" stroke-width="2" stroke-linecap="round" stroke-linejoin="round"/>
</svg>
