<svg width="29" height="26" viewBox="0 0 29 26" fill="none" xmlns="http://www.w3.org/2000/svg">
<g id="Component 5">
<path id="Path" d="M15.1043 12.5026C15.0328 12.5686 14.9631 12.6329 14.8956 12.6952C14.3169 13.229 13.8915 13.6215 13.801 13.7147C13.6613 13.8586 13.5167 13.9981 13.3655 14.1428C13.3484 14.159 13.3313 14.1755 13.3139 14.192C13.182 14.3182 13.0425 14.4515 12.9126 14.5825C12.6345 14.8632 12.2955 15.2335 12.0987 15.6783C11.8712 16.1928 11.844 16.7841 12.1536 17.3721C12.4244 17.8864 12.9099 18.3129 13.5008 18.6991C14.3864 19.2779 15.0948 19.7563 15.8074 20.2375L15.905 20.3034C16.651 20.8072 17.4094 21.3183 18.3786 21.9484C18.6166 22.1031 18.8423 22.2626 19.0798 22.4305C19.1288 22.4651 19.1783 22.5001 19.2286 22.5355C19.5124 22.7355 19.8186 22.9474 20.1359 23.1322C20.7764 23.5054 21.5488 23.8208 22.4756 23.7362C23.7723 23.6179 24.5353 22.4288 24.8606 20.7044C25.5837 16.8707 27.0149 8.51464 27.3486 5.0373C27.3884 4.62247 27.3411 4.14484 27.3021 3.91875C27.262 3.68618 27.1471 3.13698 26.6326 2.72297C26.3429 2.48981 26.0186 2.37879 25.7826 2.32287C25.5399 2.26539 25.3101 2.24736 25.1416 2.25031C24.5525 2.2606 23.8971 2.42574 22.7126 2.852C21.5111 3.28437 19.6579 4.02765 16.6277 5.27751C14.4953 6.15709 10.2453 7.97255 3.88544 10.7204C3.33918 10.9367 2.86009 11.1739 2.49255 11.4446C2.14878 11.6978 1.7268 12.1097 1.65012 12.7163C1.59074 13.186 1.72782 13.6137 2.00567 13.9523C2.25103 14.2514 2.57285 14.4414 2.84113 14.5702C3.24172 14.7627 3.77834 14.9296 4.2833 15.0867C4.42472 15.1307 4.56366 15.174 4.69643 15.2168C5.26782 15.401 5.94482 15.6031 6.58582 15.7625C7.20382 15.9162 7.86759 16.0509 8.37805 16.0618C9.37188 16.0831 10.3653 15.6781 11.3283 15.023C12.7525 14.0696 14.0111 13.2295 15.1043 12.5026Z" stroke="white" stroke-width="2"/>
</g>
</svg>
