<svg width="25" height="25" viewBox="0 0 25 25" fill="none" xmlns="http://www.w3.org/2000/svg">
<g id="Component 4">
<g id="Viber shape">
<path d="M15.5597 10.0723C15.5682 10.2467 15.4336 10.3949 15.2592 10.4034C15.0848 10.4118 14.9365 10.2772 14.9281 10.1028C14.8759 9.02217 14.3739 8.50376 13.3363 8.44864C13.1619 8.43937 13.028 8.2905 13.0373 8.11611C13.0466 7.94173 13.1954 7.80787 13.3698 7.81713C14.7353 7.88967 15.492 8.67122 15.5597 10.0723Z" fill="white"/>
<path d="M16.8575 10.9476C17.0321 10.9516 17.1768 10.8133 17.1808 10.6387C17.2089 9.40279 16.8387 8.35928 16.0696 7.52139C15.2992 6.682 14.2365 6.21722 12.8915 6.12171C12.7173 6.10934 12.5661 6.24053 12.5537 6.41472C12.5413 6.58891 12.6725 6.74015 12.8467 6.75252C14.0381 6.83712 14.9487 7.2354 15.6037 7.94902C16.2593 8.66326 16.573 9.5476 16.5485 10.6243C16.5446 10.7989 16.6829 10.9437 16.8575 10.9476Z" fill="white"/>
<path d="M18.8429 11.2782C18.8442 11.4528 18.7037 11.5955 18.529 11.5968C18.3544 11.5981 18.2118 11.4576 18.2105 11.2829C18.1961 9.35874 17.6282 7.86303 16.5089 6.76861C15.3857 5.67393 13.9895 5.12079 12.3118 5.11006C12.1372 5.10894 11.9965 4.96647 11.9976 4.79184C11.9988 4.61722 12.1412 4.47656 12.3159 4.47768C14.1544 4.48944 15.708 5.10493 16.9507 6.31608C18.1978 7.53547 18.8273 9.19346 18.8429 11.2782Z" fill="white"/>
<path d="M14.0997 14.0643C13.8633 14.3607 13.4168 14.3232 13.4168 14.3232C10.1679 13.4941 9.29747 10.2038 9.29747 10.2038C9.29747 10.2038 9.25995 9.76113 9.55633 9.52102L10.1416 9.05581C10.4342 8.8307 10.6181 8.28671 10.3217 7.75396C10.1566 7.45758 9.82646 6.92859 9.5826 6.59469C9.32373 6.24203 8.72346 5.5217 8.7197 5.51795C8.43082 5.17279 8.00313 5.094 7.55292 5.32661C7.55292 5.32661 7.54917 5.33036 7.54542 5.33036C7.11772 5.57047 6.72004 5.89312 6.34862 6.30205L6.34112 6.30956C6.0635 6.64346 5.90217 6.97361 5.86466 7.29626C5.85715 7.33377 5.8534 7.38254 5.85715 7.43882C5.8534 7.58139 5.87591 7.7202 5.92093 7.85901L5.93594 7.87027C6.07475 8.36924 6.42741 9.19837 7.18901 10.5828C7.68423 11.4794 8.19071 12.2297 8.69344 12.86C8.95606 13.1939 9.2562 13.5353 9.60135 13.8843L9.73642 14.0193C10.0853 14.3645 10.4267 14.6646 10.7606 14.9272C11.3909 15.43 12.1375 15.9364 13.0379 16.4317C14.4223 17.1933 15.2514 17.5459 15.7504 17.6847L15.7617 17.6997C15.9005 17.7448 16.0393 17.7635 16.1818 17.7635C16.2381 17.7673 16.2869 17.7635 16.3244 17.756C16.6471 17.7185 16.9772 17.5572 17.3111 17.2795L17.3186 17.272C17.7276 16.9006 18.0502 16.4992 18.2903 16.0752C18.2903 16.0752 18.2941 16.0715 18.2941 16.0677C18.5267 15.6175 18.4479 15.1898 18.1027 14.901C18.1027 14.901 17.3786 14.2969 17.026 14.0381C16.6958 13.7942 16.1631 13.4678 15.8667 13.299C15.334 13.0026 14.79 13.1864 14.5649 13.4791L14.0997 14.0643Z" fill="white"/>
<path fill-rule="evenodd" clip-rule="evenodd" d="M12.9441 0.0179451C18.5342 0.044207 21.0441 1.86754 21.6668 2.4378C23.7265 4.22736 24.8708 8.19667 24.1017 14.4658C23.4251 20.0049 19.5615 20.9875 18.2654 21.3172C18.1385 21.3495 18.0362 21.3755 17.9639 21.3989C17.615 21.5115 14.5273 22.2843 10.5168 21.9467C10.0741 22.4607 9.48505 23.136 9.06111 23.5937C8.93303 23.7316 8.81312 23.8679 8.69852 23.9981C8.11828 24.6573 7.67438 25.1617 6.99767 24.9518C6.32611 24.7454 6.36363 23.725 6.36363 23.725L6.36738 21.2076H6.36363C0.495963 19.5568 0.582252 13.4753 0.649782 10.2263C0.713561 6.97736 1.34385 4.35867 3.13341 2.56911C6.34862 -0.379736 12.9441 0.0179451 12.9441 0.0179451ZM17.5998 19.5637C18.7014 19.308 21.7778 18.5941 22.3459 14.0156C22.9949 8.77818 22.1058 5.2028 20.365 3.70587C19.8398 3.22941 17.5737 1.80751 12.8428 1.785C12.8428 1.785 7.24153 1.41733 4.52154 3.87845C3.00961 5.37163 2.49937 7.59264 2.4431 10.3051L2.43697 10.5814C2.37347 13.3553 2.26157 18.2441 7.0577 19.5756C7.0577 19.5756 7.03894 23.4211 7.03519 23.7587C7.03519 23.9951 7.0727 24.1564 7.20776 24.1902C7.30531 24.2165 7.45163 24.1639 7.57543 24.0401C8.36704 23.241 10.9069 20.1796 10.9069 20.1796C14.3135 20.4047 17.0222 19.7294 17.3149 19.6356C17.3822 19.6141 17.4792 19.5916 17.5998 19.5637Z" fill="white"/>
</g>
</g>
</svg>
