<svg width="27" height="28" viewBox="0 0 27 28" fill="none" xmlns="http://www.w3.org/2000/svg">
<g id="Component 4">
<g id="Union">
<path d="M9.44126 7.92988C9.68054 7.93931 9.94527 7.9501 10.1968 8.4885C10.3687 8.85656 10.6579 9.54272 10.8884 10.0896C11.0583 10.4925 11.1962 10.8198 11.2318 10.8884C11.3158 11.0501 11.3717 11.2388 11.2598 11.4547C11.243 11.487 11.2275 11.5175 11.2127 11.5466C11.1286 11.7119 11.0668 11.8333 10.9244 11.9939C10.8686 12.0566 10.8108 12.1243 10.7531 12.1919C10.6372 12.3276 10.5213 12.4634 10.4207 12.5601C10.2523 12.7213 10.0773 12.8964 10.2732 13.2198C10.4691 13.5434 11.143 14.6017 12.1411 15.4586C13.2133 16.3792 14.1448 16.7686 14.6178 16.9664C14.7107 17.0052 14.7859 17.0366 14.841 17.0633C15.1768 17.2249 15.3727 17.198 15.5686 16.9819C15.7645 16.7663 16.4075 16.0383 16.6314 15.7149C16.8552 15.3913 17.0791 15.4452 17.3869 15.5529C17.6947 15.6607 19.3453 16.443 19.6811 16.6047C19.7466 16.6362 19.8078 16.6646 19.8645 16.691C20.0989 16.7999 20.2571 16.8734 20.3247 16.9819C20.4087 17.1172 20.4087 17.7642 20.1288 18.5191C19.849 19.274 18.4782 20.0021 17.8626 20.056C17.8034 20.0612 17.7445 20.0679 17.6839 20.0747C17.115 20.1391 16.3969 20.2204 13.8337 19.2471C10.6796 18.0494 8.60001 15.0812 8.17036 14.468C8.13513 14.4177 8.11099 14.3833 8.09827 14.367L8.09453 14.3621C7.91349 14.1292 6.72732 12.6027 6.72732 11.0231C6.72732 9.5342 7.48735 8.75372 7.83704 8.39462C7.86093 8.37008 7.88291 8.34751 7.9026 8.32682C8.21018 8.00327 8.574 7.92231 8.79782 7.92231C8.81009 7.92231 8.82236 7.92231 8.83463 7.92231C9.04601 7.92228 9.25632 7.92226 9.44126 7.92988Z" fill="white"/>
<path fill-rule="evenodd" clip-rule="evenodd" d="M1.9247 20.3448C0.731929 18.387 0.108434 16.1681 0.108434 13.8709C0.108434 6.7444 6.15361 0.949219 13.5542 0.949219C17.1596 0.949219 20.5211 2.30665 23.0693 4.73436C25.5904 7.18817 27 10.4251 27 13.897C27 21.0235 20.9548 26.8187 13.5542 26.8187C11.3042 26.8187 9.08133 26.2966 7.12952 25.2524L0 27.0536L1.9247 20.3448ZM4.09337 19.6139L4.36446 20.0054L3.2259 23.9733L7.45482 22.903L7.86145 23.138C9.56928 24.1299 11.5482 24.652 13.5542 24.652C19.7078 24.652 24.7229 19.8227 24.7229 13.897C24.7229 11.0255 23.5572 8.31067 21.4428 6.27452C19.3554 4.26448 16.5361 3.14199 13.5542 3.14199C7.4006 3.14199 2.38554 7.9452 2.38554 13.897C2.38554 15.9071 2.98193 17.891 4.09337 19.6139Z" fill="white"/>
</g>
</g>
</svg>
