<svg width="125" height="166" viewBox="0 0 125 166" fill="none" xmlns="http://www.w3.org/2000/svg">
<path d="M115.869 107.439C111.244 110.509 108.381 115.017 107.281 120.963C106.204 126.783 107.275 131.954 110.495 136.475C113.714 140.997 118.107 143.773 123.674 144.803C129.367 145.857 134.526 144.849 139.151 141.779C143.775 138.709 146.626 134.265 147.703 128.445C148.804 122.498 147.744 117.265 144.525 112.743C141.305 108.222 136.849 105.434 131.156 104.38C125.589 103.35 120.493 104.37 115.869 107.439ZM98.5396 144.862C93.0518 137.042 91.2211 128.197 93.0476 118.329C94.8975 108.334 99.7723 100.731 107.672 95.5195C115.595 90.1817 124.364 88.4026 133.98 90.1822C143.595 91.9618 151.083 96.7499 156.445 104.546C161.956 112.24 163.787 121.084 161.937 131.079C160.11 140.947 155.235 148.551 147.312 153.889C139.539 159.123 130.845 160.851 121.23 159.071C111.614 157.292 104.051 152.555 98.5396 144.862ZM41.8696 23.6723C37.2451 26.7419 34.3825 31.2499 33.282 37.1962C32.2048 43.0161 33.276 48.1867 36.4956 52.7081C39.7152 57.2296 44.1084 60.0054 49.6752 61.0358C55.3685 62.0895 60.5274 61.0815 65.1519 58.0119C69.7765 54.9423 72.6273 50.4975 73.7045 44.6777C74.805 38.7314 73.7455 33.4975 70.526 28.976C67.3064 24.4546 62.8499 21.667 57.1566 20.6133C51.5898 19.583 46.4942 20.6026 41.8696 23.6723ZM24.3509 61.0594C18.9897 53.2628 17.2222 44.4303 19.0487 34.5619C20.8986 24.567 25.7101 16.9521 33.4833 11.7174C41.4064 6.37949 50.1756 4.60037 59.791 6.38C69.4063 8.15963 76.9579 12.9594 82.4457 20.7794C87.9569 28.4729 89.7876 37.3171 87.9377 47.312C86.1113 57.1804 81.2365 64.7836 73.3134 70.1214C65.4137 75.3328 56.6562 77.0487 47.0408 75.269C37.4255 73.4894 29.8622 68.7528 24.3509 61.0594ZM59.5237 145.688L42.4438 142.527L121.497 19.7634L138.577 22.9246L59.5237 145.688Z" fill="url(#paint0_linear_799_2337)"/>
<defs>
<linearGradient id="paint0_linear_799_2337" x1="103.149" y1="16.4693" x2="164.347" y2="157.238" gradientUnits="userSpaceOnUse">
<stop stop-color="white"/>
<stop offset="1" stop-color="white" stop-opacity="0"/>
</linearGradient>
</defs>
</svg>
