<svg width="176" height="211" viewBox="0 0 176 211" fill="none" xmlns="http://www.w3.org/2000/svg">
<path d="M170.86 158.967C164.055 163.484 159.842 170.118 158.223 178.868C156.638 187.432 158.214 195.04 162.952 201.693C167.689 208.347 174.154 212.431 182.345 213.948C190.723 215.498 198.315 214.015 205.12 209.498C211.925 204.981 216.12 198.441 217.705 189.877C219.324 181.127 217.765 173.425 213.027 166.772C208.29 160.118 201.732 156.016 193.354 154.466C185.163 152.95 177.665 154.45 170.86 158.967ZM145.36 214.034C137.285 202.527 134.591 189.513 137.279 174.991C140.001 160.284 147.174 149.096 158.798 141.427C170.457 133.572 183.361 130.954 197.51 133.573C211.659 136.192 222.678 143.238 230.567 154.71C238.677 166.031 241.371 179.046 238.649 193.753C235.961 208.274 228.788 219.462 217.129 227.317C205.691 235.02 192.897 237.562 178.748 234.944C164.599 232.325 153.47 225.355 145.36 214.034ZM61.97 35.7036C55.165 40.2206 50.9527 46.8541 49.3332 55.6042C47.7482 64.1681 49.3245 71.7767 54.0621 78.43C58.7997 85.0833 65.2643 89.168 73.4558 90.6841C81.8336 92.2347 89.4249 90.7515 96.23 86.2345C103.035 81.7175 107.23 75.1771 108.815 66.6132C110.435 57.8632 108.875 50.1615 104.138 43.5082C99.4002 36.8548 92.8426 32.7529 84.4649 31.2023C76.2733 29.6862 68.775 31.1867 61.97 35.7036ZM36.1912 90.7189C28.3021 79.2462 25.7013 66.2492 28.3889 51.7278C31.1111 37.0202 38.1912 25.815 49.6294 18.112C61.2883 10.2573 74.1922 7.63931 88.3413 10.258C102.49 12.8768 113.602 19.9397 121.678 31.4468C129.788 42.7678 132.481 55.7821 129.759 70.4896C127.072 85.011 119.898 96.199 108.24 104.054C96.6152 111.722 83.7285 114.247 69.5794 111.628C55.4304 109.01 44.301 102.04 36.1912 90.7189ZM87.948 215.25L62.8148 210.598L179.142 29.9518L204.275 34.6035L87.948 215.25Z" fill="url(#paint0_linear_4488_10983)"/>
<defs>
<linearGradient id="paint0_linear_4488_10983" x1="152.129" y1="24.7489" x2="242.501" y2="232" gradientUnits="userSpaceOnUse">
<stop stop-color="white"/>
<stop offset="1" stop-color="white" stop-opacity="0"/>
</linearGradient>
</defs>
</svg>
