<svg width="75" height="120" viewBox="0 0 75 120" fill="none" xmlns="http://www.w3.org/2000/svg">
<path d="M4 25C4 13.402 13.402 4 25 4H46V46H25C13.402 46 4 36.598 4 25V25Z" stroke="url(#paint0_linear_4488_9891)" stroke-width="7.14894"/>
<path d="M88 25C88 13.402 78.598 4 67 4H46V46H67C78.598 46 88 36.598 88 25V25Z" stroke="url(#paint1_linear_4488_9891)" stroke-width="7.14894"/>
<path d="M88 67C88 55.402 78.598 46 67 46V46C55.402 46 46 55.402 46 67V67C46 78.598 55.402 88 67 88V88C78.598 88 88 78.598 88 67V67Z" stroke="url(#paint2_linear_4488_9891)" stroke-width="7.14894"/>
<path d="M4 67C4 55.402 13.402 46 25 46H46V88H25C13.402 88 4 78.598 4 67V67Z" stroke="url(#paint3_linear_4488_9891)" stroke-width="7.14894"/>
<path d="M4 109C4 97.402 13.402 88 25 88H46V109C46 120.598 36.598 130 25 130V130C13.402 130 4 120.598 4 109V109Z" stroke="url(#paint4_linear_4488_9891)" stroke-width="7.14894"/>
<defs>
<linearGradient id="paint0_linear_4488_9891" x1="25" y1="4" x2="25" y2="46" gradientUnits="userSpaceOnUse">
<stop offset="0.875" stop-color="white"/>
<stop offset="1" stop-color="white" stop-opacity="0.52"/>
</linearGradient>
<linearGradient id="paint1_linear_4488_9891" x1="67" y1="4" x2="67" y2="46" gradientUnits="userSpaceOnUse">
<stop offset="0.875" stop-color="white"/>
<stop offset="1" stop-color="white" stop-opacity="0.52"/>
</linearGradient>
<linearGradient id="paint2_linear_4488_9891" x1="67" y1="46" x2="67" y2="88" gradientUnits="userSpaceOnUse">
<stop offset="0.875" stop-color="white"/>
<stop offset="1" stop-color="white" stop-opacity="0.52"/>
</linearGradient>
<linearGradient id="paint3_linear_4488_9891" x1="25" y1="46" x2="25" y2="88" gradientUnits="userSpaceOnUse">
<stop offset="0.875" stop-color="white"/>
<stop offset="1" stop-color="white" stop-opacity="0.52"/>
</linearGradient>
<linearGradient id="paint4_linear_4488_9891" x1="25" y1="88" x2="25" y2="130" gradientUnits="userSpaceOnUse">
<stop offset="0.875" stop-color="white"/>
<stop offset="1" stop-color="white" stop-opacity="0.52"/>
</linearGradient>
</defs>
</svg>
