<svg width="102" height="54" viewBox="0 0 102 54" fill="none" xmlns="http://www.w3.org/2000/svg">
<g clip-path="url(#clip0_1608_2259)">
<path fill-rule="evenodd" clip-rule="evenodd" d="M51.6597 5.06589C52.0306 5.54008 52.7511 5.54008 53.1224 5.06589L57.0888 0H74.962C89.8661 0 101.948 12.0276 101.948 26.8643C101.948 41.701 89.8661 53.7286 74.962 53.7286H55.9488L52.1952 48.9342C51.8238 48.4602 51.1033 48.4602 50.7324 48.9342L46.9783 53.7286H39.9797V49.2046C47.212 44.3854 51.9735 36.1784 51.9735 26.8643C51.9735 17.5501 47.212 9.34306 39.9797 4.52383V0H47.6933L51.6597 5.06589ZM53.9727 16.443H61.4447L61.4614 35.3458L73.5354 23.4703L85.864 35.5485C87.6133 33.0822 88.4793 30.278 88.4793 27.1191C88.4793 21.156 84.9641 16.1727 80.0565 13.8246V5.96963C89.3283 8.58798 95.9342 17.2369 95.9513 27.1022C95.9513 34.9572 91.9436 41.7143 85.6433 45.7347L73.5526 33.893L61.4786 45.7685H54.0066L53.9727 16.443Z" fill="white"/>
<path fill-rule="evenodd" clip-rule="evenodd" d="M24.9874 51.7388C38.7875 51.7388 49.9749 40.6023 49.9749 26.8646C49.9749 13.1268 38.7875 1.99023 24.9874 1.99023C11.1872 1.99023 0 13.1268 0 26.8646C0 40.6023 11.1872 51.7388 24.9874 51.7388ZM5.99677 26.8767C5.99677 30.4236 6.84133 33.6503 8.55608 36.5321L8.60727 36.5568C10.322 39.4386 12.6511 41.7047 15.6199 43.3304C18.5888 44.956 21.8647 45.7689 25.4478 45.7689C29.5428 45.7442 33.2283 44.6604 36.5555 42.4929C39.8826 40.3253 42.3396 37.3696 43.9775 33.6503L36.9905 31.3103C35.9668 33.7242 34.4056 35.6454 32.3581 37.0248C30.285 38.4287 27.956 39.1184 25.3711 39.1184C21.916 39.1184 18.9726 37.9608 16.5669 35.6454C14.1611 33.3055 12.9582 30.399 12.9582 26.8767C12.9582 23.3544 14.1355 20.4233 16.5413 18.108C18.9215 15.7927 21.8647 14.6103 25.3455 14.6103C27.8536 14.6103 30.1314 15.2754 32.1534 16.5562C34.1752 17.8371 35.7108 19.6351 36.7346 21.9258L43.6448 19.512C41.9557 15.9405 39.4987 13.1079 36.2227 11.0388C32.9467 8.99444 29.3124 7.9599 25.3455 7.9599C21.7623 7.9599 18.4864 8.77276 15.5175 10.423C12.5487 12.0733 10.2197 14.3394 8.53049 17.2213C6.84132 20.1031 5.99677 23.3298 5.99677 26.8767Z" fill="white"/>
</g>
<defs>
<clipPath id="clip0_1608_2259">
<rect width="102" height="54" fill="white"/>
</clipPath>
</defs>
</svg>
