<svg width="367" height="142" viewBox="0 0 367 142" fill="none" xmlns="http://www.w3.org/2000/svg">
<g clip-path="url(#clip0_1608_2210)">
<path d="M100.2 79.4639C98.6614 77.9239 97.915 75.9639 97.915 73.724C97.915 71.4373 98.6614 69.5706 100.2 67.9839C101.739 66.4439 103.604 65.6973 105.888 65.6973C108.173 65.6973 110.085 66.4439 111.577 67.9839C113.116 69.524 113.861 71.3906 113.861 73.6772C113.861 75.9639 113.116 77.8773 111.577 79.4639C110.039 81.004 108.126 81.7973 105.888 81.7973C103.604 81.7973 101.692 81.004 100.153 79.4639H100.2ZM99.4066 139.431V88.4239H112.51V139.431H99.4066Z" fill="white"/>
<path d="M121.09 139.413V125.646L147.108 100.026H121.042V88.4531H164.032V102.173L135.917 127.793H164.032V139.366H121.042L121.09 139.413Z" fill="white"/>
<path d="M201.101 118.09L189.911 119.537C185.575 120.097 183.383 121.684 183.383 124.344C183.383 125.79 183.989 126.864 185.155 127.657C186.321 128.45 188.046 128.824 190.191 128.824C193.455 128.824 196.065 127.984 198.071 126.257C200.075 124.577 201.055 122.337 201.055 119.537H204.598C204.598 125.51 202.826 130.504 199.33 134.47C195.833 138.437 191.356 140.444 185.994 140.444C181.378 140.444 177.554 139.044 174.57 136.197C171.586 133.397 170.094 129.804 170.094 125.417C170.094 121.03 171.586 117.39 174.57 114.497C177.554 111.604 181.612 109.83 186.787 109.13L201.055 107.357V106.657C201.055 104.604 200.168 102.877 198.35 101.384C196.532 99.9369 194.387 99.1903 191.869 99.1903C189.538 99.1903 187.533 99.797 185.761 100.964C183.989 102.13 182.824 103.717 182.311 105.584L169.675 101.524C171.12 97.2302 173.825 93.7769 177.834 91.1169C181.844 88.4568 186.367 87.1502 191.403 87.1035C197.604 87.1035 202.966 88.9702 207.489 92.7035C212.058 96.4369 214.344 100.87 214.344 105.957V139.184H201.148V117.95L201.101 118.09Z" fill="white"/>
<path d="M225.161 139.276V88.2697H238.358V139.276H225.161ZM252.812 100.683C248.802 100.683 245.398 101.803 242.554 103.996C239.709 106.19 238.31 108.896 238.31 112.116H233.135C233.135 105.116 234.954 99.283 238.683 94.523C242.368 89.8097 246.937 87.4297 252.392 87.4297H255.236V100.683H252.812Z" fill="white"/>
<path d="M299.997 93.9835C304.472 99.2101 306.757 105.743 306.757 113.63C306.757 121.517 304.518 128.05 300.043 133.277C295.567 138.503 290.018 141.117 283.35 141.117C276.542 141.117 270.807 138.503 266.145 133.277C261.435 128.05 259.104 121.517 259.104 113.724C259.104 105.93 261.435 99.3501 266.098 94.1235C270.761 88.8968 276.496 86.2835 283.303 86.2368C289.971 86.2368 295.52 88.8035 300.043 94.0301L299.997 93.9835ZM297.805 124.27C300.649 121.424 302.094 117.877 302.094 113.583C302.094 109.29 300.649 105.743 297.805 102.943C294.961 100.143 291.416 98.6968 287.22 98.6968C283.023 98.6968 279.48 100.097 276.636 102.943C273.791 105.743 272.346 109.337 272.346 113.583C272.346 117.83 273.791 121.423 276.636 124.224C279.48 127.024 283.023 128.47 287.22 128.423C291.416 128.377 294.961 127.024 297.805 124.177V124.27ZM315.337 139.203H302.094L302.001 62.7168H315.243L315.337 139.203Z" fill="white"/>
<path d="M344.852 119.456C331.657 117.636 325.082 112.316 325.082 103.449C325.082 98.6424 326.853 94.629 330.397 91.5024C333.941 88.3757 338.511 86.7891 344.106 86.7891C348.955 86.7891 353.338 88.049 357.301 90.569C361.265 93.0891 364.155 96.4023 365.927 100.556L353.104 104.429C352.359 102.516 351.193 101.022 349.654 99.949C348.068 98.8757 346.343 98.3157 344.432 98.3157C342.614 98.3157 341.121 98.7357 339.956 99.5757C338.79 100.416 338.23 101.536 338.23 102.842C338.23 104.149 338.93 105.222 340.375 106.062C341.82 106.856 344.058 107.509 347.183 107.976C353.524 108.769 358.374 110.589 361.824 113.436C365.274 116.236 367 119.782 367 124.076C367 128.742 365.135 132.616 361.358 135.649C357.58 138.682 352.872 140.176 347.136 140.222C341.961 140.222 337.297 139.009 333.101 136.582C328.905 134.156 325.921 130.842 324.056 126.689L336.786 122.582C337.671 124.682 338.976 126.362 340.749 127.576C342.52 128.789 344.525 129.396 346.763 129.396C348.722 129.396 350.401 128.929 351.706 127.996C353.011 127.062 353.71 125.942 353.71 124.589C353.71 123.236 353.011 122.162 351.613 121.322C350.213 120.529 347.975 119.876 344.852 119.409V119.456Z" fill="white"/>
<path d="M0 80.1405H15.7688L15.8047 120.037L41.2851 94.9723L67.3042 120.465C70.9955 115.259 72.8227 109.341 72.8227 102.674C72.8227 90.0878 65.4041 79.57 55.0472 74.6141V58.0352C74.6151 63.5615 88.5556 81.8162 88.5915 102.638C88.5915 119.217 80.1336 133.478 66.8384 141.964L41.321 116.971L15.8406 142.035H0.0718242L0 80.1405Z" fill="white"/>
<path d="M2.6444 32.6553C0.872649 29.5446 0 26.0617 0 22.2332C0 18.4047 0.872643 14.9218 2.61795 11.8112C4.36325 8.70047 6.76967 6.2545 9.83715 4.47315C12.9047 2.69182 16.2895 1.81445 19.9917 1.81445C24.0905 1.81445 27.8455 2.9311 31.2304 5.13782C34.6152 7.37111 37.1538 10.4286 38.8991 14.2838L31.7593 16.8892C30.7015 14.4167 29.1148 12.4758 27.0257 11.0933C24.9367 9.71076 22.5831 8.99292 19.9917 8.99292C16.3953 8.99292 13.3542 10.2691 10.8949 12.7683C8.40919 15.2675 7.19278 18.4313 7.19278 22.2332C7.19278 26.0352 8.43561 29.1724 10.9213 31.6982C13.4071 34.1974 16.4482 35.4469 20.0181 35.4469C22.6889 35.4469 25.0953 34.7025 27.2373 33.1871C29.3529 31.6982 30.9659 29.6244 32.0237 27.0189L39.2429 29.5446C37.5504 33.5593 35.0119 36.7497 31.5741 39.0894C28.1364 41.429 24.3285 42.5988 20.0974 42.6255C16.3953 42.6255 13.0104 41.748 9.94296 39.9933C6.87542 38.2386 4.46903 35.7926 2.69728 32.6819L2.6444 32.6553Z" fill="white"/>
<path d="M98.9014 16.9625C101.335 19.7807 102.551 23.3434 102.551 27.5972C102.551 31.8511 101.361 35.4138 98.9279 38.2586C96.4953 41.0768 93.5072 42.4859 89.9109 42.4859C86.2353 42.4859 83.141 41.0768 80.6027 38.232C78.0639 35.3872 76.7944 31.8511 76.7944 27.6238C76.7944 23.3965 78.0374 19.8339 80.5763 16.9891C83.1146 14.1442 86.2083 12.7086 89.858 12.7086C93.4544 12.7086 96.4688 14.1177 98.875 16.9359L98.9014 16.9625ZM97.7118 33.3932C99.2455 31.8511 100.012 29.9369 100.012 27.6238C100.012 25.3108 99.2455 23.3699 97.6854 21.8545C96.1518 20.339 94.2476 19.568 91.9736 19.568C89.6989 19.568 87.7954 20.339 86.2617 21.8811C84.7275 23.4231 83.9607 25.3374 83.9607 27.677C83.9607 30.0166 84.7275 31.931 86.2881 33.4464C87.8218 34.9884 89.7254 35.7329 92 35.7329C94.2741 35.7329 96.1782 34.9618 97.7118 33.4198V33.3932ZM107.179 41.4757H100.039L99.9859 0H107.126L107.179 41.4757Z" fill="white"/>
<path d="M119.501 31.143C119.871 32.7914 120.717 34.0942 122.013 35.0247C123.309 35.9553 124.843 36.4072 126.615 36.4072C128.016 36.4072 129.285 36.1148 130.449 35.5033C131.612 34.9184 132.459 34.0942 133.014 33.0573L139.572 35.5299C138.408 37.8164 136.663 39.6509 134.363 40.9802C132.062 42.3362 129.497 43.0008 126.72 43.0008C122.542 43.0008 119.025 41.5917 116.195 38.7469C113.366 35.9021 111.938 32.366 111.938 28.0855C111.938 23.8582 113.313 20.3222 116.063 17.4774C118.814 14.6591 122.224 13.25 126.297 13.25C130.369 13.25 133.834 14.6591 136.69 17.5039C139.545 20.3487 141 23.8582 141 28.059C141 28.9097 140.868 29.92 140.629 31.0898H119.554L119.501 31.143ZM133.622 25.1078C133.331 23.486 132.511 22.2098 131.163 21.2793C129.814 20.3487 128.254 19.8968 126.455 19.8968C124.684 19.8968 123.177 20.3487 121.907 21.2527C120.638 22.1567 119.818 23.4328 119.475 25.1078H133.622Z" fill="white"/>
<path d="M44.5251 26.8271H52.1674M44.5251 26.8271C44.5251 34.4576 50.6866 40.6524 58.2762 40.6524M44.5251 26.8271C44.5251 19.1967 50.6866 13.002 58.2762 13.002M52.1674 26.8271H64.3844M52.1674 26.8271C52.1674 34.4576 54.8911 40.6524 58.2762 40.6524M52.1674 26.8271C52.1674 19.1967 54.8911 13.002 58.2762 13.002M58.2762 40.6524C61.6606 40.6524 64.3844 34.4576 64.3844 26.8271M58.2762 40.6524C65.8652 40.6524 72.0268 34.4576 72.0268 26.8271M58.2762 13.002C61.6606 13.002 64.3844 19.1967 64.3844 26.8271M58.2762 13.002C65.8652 13.002 72.0268 19.1967 72.0268 26.8271M64.3844 26.8271H72.0268" stroke="white" stroke-width="3.7044" stroke-linecap="round" stroke-linejoin="round"/>
</g>
<defs>
<clipPath id="clip0_1608_2210">
<rect width="367" height="142" fill="white"/>
</clipPath>
</defs>
</svg>
