<svg width="64" height="64" viewBox="0 0 64 64" fill="none" xmlns="http://www.w3.org/2000/svg">
<g id="Media / Play">
<path id="Vector" d="M13.3333 17.7786V46.2231C13.3333 48.5686 13.3333 49.7405 13.8268 50.4344C14.2576 51.0401 14.9216 51.4377 15.6588 51.5328C16.5034 51.6417 17.5371 51.0916 19.6067 49.9878L46.2734 35.7656C48.5653 34.5432 49.7113 33.931 50.0868 33.1172C50.414 32.4082 50.414 31.5898 50.0868 30.8809C49.7118 30.0682 48.5685 29.4584 46.283 28.2395L46.2734 28.2352L19.6067 14.013C17.5386 12.91 16.5031 12.3577 15.6588 12.4666C14.9216 12.5617 14.2576 12.9594 13.8268 13.5651C13.3333 14.2591 13.3333 15.4331 13.3333 17.7786Z" fill="white" stroke="white" stroke-width="2" stroke-linecap="round" stroke-linejoin="round"/>
</g>
</svg>
