<svg width="31" height="59" viewBox="0 0 31 59" fill="none" xmlns="http://www.w3.org/2000/svg">
<g id="Media / Play">
<path id="Vector" d="M-15.7083 16.3899V42.6121C-15.7083 44.7744 -15.7083 45.8547 -15.2532 46.4945C-14.8561 47.0529 -14.244 47.4194 -13.5644 47.507C-12.7858 47.6075 -11.8328 47.1003 -9.92493 46.0828L14.6584 32.9717C16.7713 31.8448 17.8277 31.2804 18.1739 30.5301C18.4755 29.8766 18.4755 29.1221 18.1739 28.4686C17.8282 27.7194 16.7743 27.1572 14.6673 26.0335L14.6584 26.0296L-9.92493 12.9185C-11.8314 11.9017 -12.7861 11.3925 -13.5644 11.4929C-14.244 11.5806 -14.8561 11.9472 -15.2532 12.5056C-15.7083 13.1453 -15.7083 14.2276 -15.7083 16.3899Z" fill="white" stroke="white" stroke-width="2" stroke-linecap="round" stroke-linejoin="round"/>
</g>
</svg>
