<svg width="611" height="269" viewBox="0 0 611 269" fill="none" xmlns="http://www.w3.org/2000/svg">
<path d="M299.831 325.501C299.831 377.139 254.238 419 197.997 419C141.757 419 96.1643 377.139 96.1643 325.501C96.1643 273.862 141.757 232 197.997 232C254.238 232 299.831 273.862 299.831 325.501Z" fill="white" fill-opacity="0.1"/>
<path d="M299.831 138.5C299.831 190.138 254.238 231.999 197.997 231.999C141.757 231.999 96.1643 190.138 96.1643 138.5C96.1643 86.8607 141.757 45 197.997 45C254.238 45 299.831 86.8607 299.831 138.5Z" fill="white" fill-opacity="0.1"/>
<path d="M299.831 -48.5C299.831 3.13863 254.238 45.0004 197.997 45.0004C141.757 45.0004 96.1643 3.13863 96.1643 -48.5C96.1643 -100.139 141.757 -142 197.997 -142C254.238 -142 299.831 -100.139 299.831 -48.5Z" fill="white" fill-opacity="0.1"/>
<path d="M503.498 325.501C503.498 377.139 457.905 419 401.664 419C345.423 419 299.831 377.139 299.831 325.501C299.831 273.862 345.423 232 401.664 232C457.905 232 503.498 273.862 503.498 325.501Z" fill="white" fill-opacity="0.1"/>
<path d="M503.498 138.5C503.498 190.138 457.905 231.999 401.664 231.999C345.423 231.999 299.831 190.138 299.831 138.5C299.831 86.8607 345.423 45 401.664 45C457.905 45 503.498 86.8607 503.498 138.5Z" fill="white" fill-opacity="0.1"/>
<path d="M503.498 -48.5C503.498 3.13863 457.905 45.0004 401.664 45.0004C345.423 45.0004 299.831 3.13863 299.831 -48.5C299.831 -100.139 345.423 -142 401.664 -142C457.905 -142 503.498 -100.139 503.498 -48.5Z" fill="white" fill-opacity="0.1"/>
<path d="M0.000244141 44.8581C53.6043 42.1574 96.1643 1.39182 96.1643 -48.4999C96.1643 -98.3919 53.6043 -139.157 0.000244141 -141.857V44.8581Z" fill="white" fill-opacity="0.1"/>
<path d="M0.000244141 231.857V45.1426C53.6043 47.8421 96.1643 88.6077 96.1643 138.5C96.1643 188.392 53.6043 229.156 0.000244141 231.857Z" fill="white" fill-opacity="0.1"/>
<path d="M0.000244141 418.858V232.143C53.6043 234.843 96.1643 275.608 96.1643 325.501C96.1643 375.393 53.6043 416.157 0.000244141 418.858Z" fill="white" fill-opacity="0.1"/>
<path d="M611 -141.858V44.8579C609.123 44.9522 607.234 45.0004 605.331 45.0004C549.09 45.0004 503.498 3.13863 503.498 -48.5C503.498 -100.139 549.09 -142 605.331 -142C607.234 -142 609.123 -141.952 611 -141.858Z" fill="white" fill-opacity="0.1"/>
<path d="M611 45.1425V231.857C609.123 231.952 607.234 231.999 605.331 231.999C549.09 231.999 503.498 190.138 503.498 138.5C503.498 86.8607 549.09 45 605.331 45C607.234 45 609.123 45.0471 611 45.1425Z" fill="white" fill-opacity="0.1"/>
<path d="M611 418.858C609.123 418.952 607.234 419 605.331 419C549.09 419 503.498 377.139 503.498 325.501C503.498 273.862 549.09 232 605.331 232C607.234 232 609.123 232.048 611 232.142V418.858Z" fill="white" fill-opacity="0.1"/>
</svg>
